<?xml version="1.0" encoding="UTF-8" standalone="no"?>
<!-- Created with Inkscape (http://www.inkscape.org/) -->

<svg
   xmlns:dc="http://purl.org/dc/elements/1.1/"
   xmlns:cc="http://creativecommons.org/ns#"
   xmlns:rdf="http://www.w3.org/1999/02/22-rdf-syntax-ns#"
   xmlns:svg="http://www.w3.org/2000/svg"
   xmlns="http://www.w3.org/2000/svg"
   xmlns:sodipodi="http://sodipodi.sourceforge.net/DTD/sodipodi-0.dtd"
   xmlns:inkscape="http://www.inkscape.org/namespaces/inkscape"
   width="744.09448819"
   height="1052.3622047"
   id="svg3957"
   version="1.1"
   inkscape:version="0.48.5 r10040"
   sodipodi:docname="logo.svg"
   inkscape:export-filename="/home/alotor/Projects/Kaleidos/thefinalcountapp/resources/private/logo.png"
   inkscape:export-xdpi="90"
   inkscape:export-ydpi="90">
  <defs
     id="defs3959" />
  <sodipodi:namedview
     id="base"
     pagecolor="#ffffff"
     bordercolor="#666666"
     borderopacity="1.0"
     inkscape:pageopacity="0.0"
     inkscape:pageshadow="2"
     inkscape:zoom="0.49497475"
     inkscape:cx="428.59846"
     inkscape:cy="531.35714"
     inkscape:document-units="px"
     inkscape:current-layer="layer1"
     showgrid="false"
     inkscape:window-width="640"
     inkscape:window-height="1061"
     inkscape:window-x="2646"
     inkscape:window-y="0"
     inkscape:window-maximized="0" />
  <metadata
     id="metadata3962">
    <rdf:RDF>
      <cc:Work
         rdf:about="">
        <dc:format>image/svg+xml</dc:format>
        <dc:type
           rdf:resource="http://purl.org/dc/dcmitype/StillImage" />
        <dc:title></dc:title>
      </cc:Work>
    </rdf:RDF>
  </metadata>
  <g
     inkscape:label="Layer 1"
     inkscape:groupmode="layer"
     id="layer1">
    <g
       transform="matrix(0.93382474,0,0,0.93382474,-336.52505,231.62197)"
       inkscape:label="logo"
       id="layer4">
      <g
         id="text3978"
         style="font-size:177.49546814px;font-style:normal;font-variant:normal;font-weight:500;font-stretch:normal;text-align:start;line-height:125%;letter-spacing:0px;word-spacing:0px;writing-mode:lr-tb;text-anchor:start;fill:#a4c8ef;fill-opacity:1;stroke:none;font-family:Ubuntu;-inkscape-font-specification:Ubuntu Medium" />
      <g
         inkscape:export-ydpi="150"
         inkscape:export-xdpi="150"
         inkscape:export-filename="/home/elhombretecla/Dropbox/proyectos/COUNT-APP/materiales/logo.png"
         id="g3846">
        <g
           transform="matrix(0.92518074,0,0,0.90251838,-175.71107,63.123152)"
           id="g3869"
           style="fill:#18b3c2;fill-opacity:1">
          <path
             inkscape:connector-curvature="0"
             id="path3871"
             d="m 1290.1464,224.22662 -29.133,-49.33098 c 0,0 -9.1235,110.04526 -23.0902,137.90241 -13.9667,27.85714 -13.9667,27.85714 -13.9667,27.85714 l 83.8367,56.42857 c 0,0 26.8887,-49.89893 32.3539,-107.75607 5.4652,-57.85714 0.343,-115.33452 0.343,-115.33452 z"
             style="fill:#18b3c2;fill-opacity:1;stroke:none"
             sodipodi:nodetypes="ccsccscc" />
          <path
             style="fill:#18b3c2;fill-opacity:1;stroke:none"
             d="m 728.30888,224.22662 30.45617,-52.42075 c 0,0 10.32921,113.13503 25.21911,140.99218 14.8899,27.85714 14.8899,27.85714 14.8899,27.85714 l -91.99311,56.38525 c 0,0 -22.59438,-42.09954 -28.42086,-99.95668 -5.82648,-57.85714 -5.21299,-120.25335 -5.21299,-120.25335 z"
             id="path3873"
             inkscape:connector-curvature="0"
             sodipodi:nodetypes="ccsccscc" />
          <path
             style="fill:#18b3c2;fill-opacity:1;stroke:none"
             d="m 703.59122,338.31423 3.40927,59.599 60.92483,-30.43084 z"
             id="path3875"
             inkscape:connector-curvature="0"
             sodipodi:nodetypes="cccc" />
          <path
             sodipodi:nodetypes="cccc"
             inkscape:connector-curvature="0"
             id="path3877"
             d="m 1311.6631,338.31423 -3.4092,59.599 -60.9248,-30.43084 z"
             style="fill:#18b3c2;fill-opacity:1;stroke:none" />
          <path
             style="fill:#18b3c2;fill-opacity:1;stroke:none"
             d="m 703.27555,338.18797 55.68466,0.88388 26.1377,-61.49304 c 0,0 58.58885,200.01021 216.17259,200.01021 157.5838,0 236.8808,-199.79097 236.8808,-199.79097 l 24.6061,61.42857 49.1913,-2.00893 c 0,0 -52.0791,228.2546 -296.536,228.2546 -244.45693,0 -312.13715,-227.28432 -312.13715,-227.28432 z"
             id="path3879"
             inkscape:connector-curvature="0"
             sodipodi:nodetypes="cccscccsc" />
          <path
             sodipodi:nodetypes="csccscc"
             inkscape:connector-curvature="0"
             id="path3881"
             d="m 726.89486,336.69879 c 0,0 78.11475,209.41403 285.86674,209.41403 202.2119,0 279.7728,-212.18405 279.7728,-212.18405 l 11.0801,-2.21603 c 0,0 -72.5748,223.81817 -290.8529,223.81817 -217.17008,0 -298.60887,-221.04814 -298.60887,-221.04814 z"
             style="fill:#18b3c2;fill-opacity:1;stroke:none" />
          <path
             style="fill:#18b3c2;fill-opacity:1;stroke:none"
             d="m 760.13518,259.13808 c 0,0 65.37263,229.35822 252.62642,229.35822 187.2538,0 242.1004,-227.6962 242.1004,-227.6962 l 11.0801,-2.21603 c 0,0 -56.5086,239.33032 -253.1805,239.33032 -195.00987,0 -265.36855,-240.99233 -265.36855,-240.99233 z"
             id="path3883"
             inkscape:connector-curvature="0"
             sodipodi:nodetypes="csccscc" />
        </g>
        <path
           sodipodi:type="arc"
           style="fill:#18b3c2;fill-opacity:1;stroke:#2295a0;stroke-width:10.31073475;stroke-miterlimit:4;stroke-opacity:1;stroke-dasharray:none"
           id="path3966"
           sodipodi:cx="737.85712"
           sodipodi:cy="319.28571"
           sodipodi:rx="260.71429"
           sodipodi:ry="260.71429"
           d="M 998.57141,319.28571 C 998.57141,463.27423 881.84565,580 737.85712,580 593.86859,580 477.14282,463.27423 477.14282,319.28571 c 0,-143.98853 116.72577,-260.714299 260.7143,-260.714299 143.98853,0 260.71429,116.725769 260.71429,260.714299 z"
           transform="matrix(0.87771259,0,0,0.87771259,109.39971,8.687477)" />
        <g
           id="g3090"
           transform="matrix(0.90251838,0,0,0.90251838,-152.37585,51.123152)">
          <path
             sodipodi:nodetypes="ccsccscc"
             style="fill:#e34a3f;fill-opacity:1;stroke:none"
             d="m 1290.1464,224.22662 -41.2928,-37.14286 c 0,0 3.0363,97.85714 -10.9304,125.71429 -13.9667,27.85714 -13.9667,27.85714 -13.9667,27.85714 l 83.8367,56.42857 c 0,0 23.6461,-42.14286 29.1113,-100 5.4652,-57.85714 -4.2507,-121.42857 -4.2507,-121.42857 z"
             id="path4115"
             inkscape:connector-curvature="0" />
          <path
             sodipodi:nodetypes="ccsccscc"
             inkscape:connector-curvature="0"
             id="path4111"
             d="m 728.30888,224.22662 44.02232,-37.14286 c 0,0 -3.23694,97.85714 11.65296,125.71429 14.8899,27.85714 14.8899,27.85714 14.8899,27.85714 l -91.99311,56.38525 c 0,0 -22.59438,-42.09954 -28.42086,-99.95668 -5.82648,-57.85714 4.53171,-121.42857 4.53171,-121.42857 z"
             style="fill:#e34a3f;fill-opacity:1;stroke:none" />
          <path
             sodipodi:nodetypes="cccc"
             inkscape:connector-curvature="0"
             id="path4113"
             d="m 703.59122,338.31423 3.40927,59.599 60.92483,-30.43084 z"
             style="fill:#412f72;fill-opacity:1;stroke:none" />
          <path
             style="fill:#412f72;fill-opacity:1;stroke:none"
             d="m 1311.6631,338.31423 -3.4092,59.599 -60.9248,-30.43084 z"
             id="path4117"
             inkscape:connector-curvature="0"
             sodipodi:nodetypes="cccc" />
          <path
             sodipodi:nodetypes="cccscccsc"
             inkscape:connector-curvature="0"
             id="path4109"
             d="m 703.27555,338.18797 55.68466,0.88388 26.1377,-61.49304 c 0,0 58.58885,200.01021 216.17259,200.01021 157.5838,0 236.8808,-199.79097 236.8808,-199.79097 l 24.6061,61.42857 49.1913,-2.00893 c 0,0 -52.0791,228.2546 -296.536,228.2546 -244.45693,0 -312.13715,-227.28432 -312.13715,-227.28432 z"
             style="fill:#f5ebd4;fill-opacity:1;stroke:none" />
          <path
             style="fill:#e34a3f;fill-opacity:1;stroke:none"
             d="m 726.89486,336.69879 c 0,0 78.11475,209.41403 285.86674,209.41403 202.2119,0 279.7728,-212.18405 279.7728,-212.18405 l 11.0801,-2.21603 c 0,0 -72.5748,223.81817 -290.8529,223.81817 -217.17008,0 -298.60887,-221.04814 -298.60887,-221.04814 z"
             id="path3097"
             inkscape:connector-curvature="0"
             sodipodi:nodetypes="csccscc" />
          <path
             sodipodi:nodetypes="csccscc"
             inkscape:connector-curvature="0"
             id="path3867"
             d="m 755.70314,259.13808 c 0,0 65.37263,229.35822 252.62646,229.35822 187.2538,0 242.1004,-227.6962 242.1004,-227.6962 l 11.0801,-2.21603 c 0,0 -56.5086,239.33032 -253.1805,239.33032 -195.00991,0 -265.36859,-240.99233 -265.36859,-240.99233 z"
             style="fill:#e34a3f;fill-opacity:1;stroke:none" />
        </g>
        <g
           id="g3062"
           transform="matrix(0.98412294,0,0,0.98412294,-239.41719,62.990057)">
          <rect
             style="fill:#412f72;fill-opacity:1;stroke:none"
             id="rect3963"
             width="135.86552"
             height="168.1904"
             x="804.58643"
             y="217.06065"
             rx="14.647239"
             ry="14.647239" />
          <rect
             ry="14.647239"
             rx="14.647239"
             y="205.06065"
             x="804.58649"
             height="168.1904"
             width="135.86552"
             id="rect3941"
             style="fill:#ffffff;fill-opacity:1;stroke:none" />
          <text
             sodipodi:linespacing="125%"
             id="text3943"
             y="350.65802"
             x="811.8158"
             style="font-size:177.49546814px;font-style:normal;font-variant:normal;font-weight:500;font-stretch:normal;text-align:start;line-height:125%;letter-spacing:0px;word-spacing:0px;writing-mode:lr-tb;text-anchor:start;fill:#18b3c2;fill-opacity:1;stroke:none;font-family:Ubuntu;-inkscape-font-specification:Ubuntu Medium"
             xml:space="preserve"><tspan
               style="font-size:177.49546814px;font-style:normal;font-variant:normal;font-weight:500;font-stretch:normal;text-align:start;line-height:125%;writing-mode:lr-tb;text-anchor:start;fill:#18b3c2;fill-opacity:1;font-family:Ubuntu;-inkscape-font-specification:Ubuntu Medium"
               y="350.65802"
               x="811.8158"
               id="tspan3945"
               sodipodi:role="line">A</tspan></text>
          <rect
             ry="14.647239"
             rx="14.647239"
             y="217.06065"
             x="944.58643"
             height="168.1904"
             width="135.86552"
             id="rect3961"
             style="fill:#412f72;fill-opacity:1;stroke:none" />
          <rect
             style="fill:#ffffff;fill-opacity:1;stroke:none"
             id="rect3947"
             width="135.86552"
             height="168.1904"
             x="944.58649"
             y="205.06065"
             rx="14.647239"
             ry="14.647239" />
          <text
             xml:space="preserve"
             style="font-size:177.49546814px;font-style:normal;font-variant:normal;font-weight:500;font-stretch:normal;text-align:start;line-height:125%;letter-spacing:0px;word-spacing:0px;writing-mode:lr-tb;text-anchor:start;fill:#18b3c2;fill-opacity:1;stroke:none;font-family:Ubuntu;-inkscape-font-specification:Ubuntu Medium"
             x="951.8158"
             y="350.65802"
             id="text3949"
             sodipodi:linespacing="125%"><tspan
               sodipodi:role="line"
               id="tspan3951"
               x="951.8158"
               y="350.65802"
               style="font-size:177.49546814px;font-style:normal;font-variant:normal;font-weight:500;font-stretch:normal;text-align:start;line-height:125%;writing-mode:lr-tb;text-anchor:start;fill:#18b3c2;fill-opacity:1;font-family:Ubuntu;-inkscape-font-specification:Ubuntu Medium">P</tspan></text>
          <rect
             style="fill:#412f72;fill-opacity:1;stroke:none"
             id="rect3959"
             width="135.86552"
             height="168.1904"
             x="1084.5864"
             y="217.06065"
             rx="14.647239"
             ry="14.647239" />
          <rect
             ry="14.647239"
             rx="14.647239"
             y="205.06065"
             x="1084.5864"
             height="168.1904"
             width="135.86552"
             id="rect3953"
             style="fill:#ffffff;fill-opacity:1;stroke:none" />
          <text
             sodipodi:linespacing="125%"
             id="text3955"
             y="350.65802"
             x="1091.8158"
             style="font-size:177.49546814px;font-style:normal;font-variant:normal;font-weight:500;font-stretch:normal;text-align:start;line-height:125%;letter-spacing:0px;word-spacing:0px;writing-mode:lr-tb;text-anchor:start;fill:#18b3c2;fill-opacity:1;stroke:none;font-family:Ubuntu;-inkscape-font-specification:Ubuntu Medium"
             xml:space="preserve"><tspan
               style="font-size:177.49546814px;font-style:normal;font-variant:normal;font-weight:500;font-stretch:normal;text-align:start;line-height:125%;writing-mode:lr-tb;text-anchor:start;fill:#18b3c2;fill-opacity:1;font-family:Ubuntu;-inkscape-font-specification:Ubuntu Medium"
               y="350.65802"
               x="1091.8158"
               id="tspan3957"
               sodipodi:role="line">P</tspan></text>
          <path
             style="fill:#f5f5f5;fill-opacity:1;stroke:none"
             d="m 959.23373,287.06065 106.57107,0 c 8.1145,0 14.6472,2.64724 14.6472,2.64724 l 0,68.89592 c 0,8.11457 -6.5327,14.64724 -14.6472,14.64724 l -106.57107,0 c -8.11457,0 -14.64724,-6.53267 -14.64724,-14.64724 l 0,-68.89592 c 0,0 6.53267,-2.64724 14.64724,-2.64724 z"
             id="path4037"
             inkscape:connector-curvature="0"
             sodipodi:nodetypes="cccsssscc" />
          <g
             transform="translate(0,-6)"
             id="text3985"
             style="font-size:177.49546814px;font-style:normal;font-variant:normal;font-weight:500;font-stretch:normal;text-align:start;line-height:125%;letter-spacing:0px;word-spacing:0px;writing-mode:lr-tb;text-anchor:start;fill:#412f72;fill-opacity:1;stroke:none;font-family:Ubuntu;-inkscape-font-specification:Ubuntu Medium">
            <path
               sodipodi:nodetypes="cccccsscccccccccscccccc"
               inkscape:connector-curvature="0"
               id="path3990"
               style="line-height:125%;fill:#412f72;fill-opacity:1;font-family:Ubuntu;-inkscape-font-specification:Ubuntu Medium"
               d="m 1001.337,294.41119 41.0015,-0.23775 8.5736,-0.66721 c 0,0 1.9125,-3.64087 -0.6907,1.5656 -2.485,5.08826 -3.564,5.55684 -8.4154,8.87004 -4.8516,3.19496 -10.7681,5.56157 -17.7495,7.09981 -6.9816,1.53834 -14.9689,2.30749 -23.9619,2.30745 l -11.18225,0 0,43.30889 -22.36443,0 0,-61.2294 c 5.20651,-1.18319 17.21706,-0.30745 17.21706,-0.30745 l 17.57202,-0.70998 m 1.5975,1.34701 -14.02215,0.53248 0,-0.11106 10.82722,0 c 10.76803,0 19.05113,2.52093 24.84933,-0.43739 5.7981,-3.07652 8.6973,-1.21706 8.6973,-1.21706 l -2.3074,-0.11724 -6.3899,3.61016 -9.7622,-3.19492 -11.8922,0.93503" />
          </g>
          <path
             sodipodi:nodetypes="cccsssscc"
             inkscape:connector-curvature="0"
             id="rect3996"
             d="m 819.23373,287.06065 106.57104,0 c 8.11457,0 14.64724,2.64724 14.64724,2.64724 l 0,68.89592 c 0,8.11457 -6.53267,14.64724 -14.64724,14.64724 l -106.57104,0 c -8.11457,0 -14.64724,-6.53267 -14.64724,-14.64724 l 0,-68.89592 c 0,0 6.53267,-2.64724 14.64724,-2.64724 z"
             style="fill:#f5f5f5;fill-opacity:1;stroke:none" />
          <g
             transform="translate(0,-6)"
             id="text3971"
             style="font-size:177.49546814px;font-style:normal;font-variant:normal;font-weight:500;font-stretch:normal;text-align:start;line-height:125%;letter-spacing:0px;word-spacing:0px;writing-mode:lr-tb;text-anchor:start;fill:#412f72;fill-opacity:1;stroke:none;font-family:Ubuntu;-inkscape-font-specification:Ubuntu Medium">
            <path
               sodipodi:nodetypes="cccccccsccccccccc"
               inkscape:connector-curvature="0"
               id="path3976"
               style="line-height:125%;fill:#412f72;fill-opacity:1;font-family:Ubuntu;-inkscape-font-specification:Ubuntu Medium"
               d="m 908.19584,356.65802 c -1.65672,-4.85154 -3.37251,-9.64391 -5.14737,-14.37713 -1.77505,-4.7332 -3.49084,-9.58473 -5.14737,-14.55463 l -51.82868,0 c -1.65666,4.9699 -3.37244,9.8806 -5.14737,14.73212 -1.65665,4.73322 -3.31327,9.46643 -4.96987,14.19964 l -23.25191,0 c 4.61488,-13.13465 8.9931,-25.2635 13.13467,-36.38657 4.14154,-11.123 10.807,-26.81627 10.807,-26.81627 l 71.14108,0.25254 c 0,0 7.09537,15.44073 11.23704,26.56373 4.25978,11.12307 8.69716,23.25192 13.31216,36.38657 l -24.13938,0 m -51.24878,-61.62218 c -3.43163,8.99317 -1.40826,4.05454 -5.19478,14.58588 l 40.46896,0 c -3.78664,-10.53134 -2.26887,-6.48346 -5.81871,-15.59496" />
          </g>
          <rect
             ry="2.4548128"
             rx="2.4548128"
             y="286.70105"
             x="805.01923"
             height="4.9096255"
             width="135"
             id="rect3965"
             style="fill:#412f72;fill-opacity:1;stroke:none" />
          <path
             transform="translate(-2,-2)"
             d="m 816.4558,282.02386 c 0,1.39473 -1.13065,2.52539 -2.52538,2.52539 -1.39473,0 -2.52538,-1.13066 -2.52538,-2.52539 0,-1.39472 1.13065,-2.52538 2.52538,-2.52538 1.39473,0 2.52538,1.13066 2.52538,2.52538 z"
             sodipodi:ry="2.5253813"
             sodipodi:rx="2.5253813"
             sodipodi:cy="282.02386"
             sodipodi:cx="813.93042"
             id="path4003"
             style="fill:#18b3c2;fill-opacity:1;stroke:none"
             sodipodi:type="arc" />
          <path
             sodipodi:type="arc"
             style="fill:#412f72;fill-opacity:1;stroke:none"
             id="path4005"
             sodipodi:cx="813.93042"
             sodipodi:cy="282.02386"
             sodipodi:rx="2.5253813"
             sodipodi:ry="2.5253813"
             d="m 816.4558,282.02386 c 0,1.39473 -1.13065,2.52539 -2.52538,2.52539 -1.39473,0 -2.52538,-1.13066 -2.52538,-2.52539 0,-1.39472 1.13065,-2.52538 2.52538,-2.52538 1.39473,0 2.52538,1.13066 2.52538,2.52538 z"
             transform="translate(-2,16)" />
          <path
             sodipodi:type="arc"
             style="fill:#18b3c2;fill-opacity:1;stroke:none"
             id="path4007"
             sodipodi:cx="813.93042"
             sodipodi:cy="282.02386"
             sodipodi:rx="2.5253813"
             sodipodi:ry="2.5253813"
             d="m 816.4558,282.02386 c 0,1.39473 -1.13065,2.52539 -2.52538,2.52539 -1.39473,0 -2.52538,-1.13066 -2.52538,-2.52539 0,-1.39472 1.13065,-2.52538 2.52538,-2.52538 1.39473,0 2.52538,1.13066 2.52538,2.52538 z"
             transform="translate(120,-2)" />
          <path
             transform="translate(120,16)"
             d="m 816.4558,282.02386 c 0,1.39473 -1.13065,2.52539 -2.52538,2.52539 -1.39473,0 -2.52538,-1.13066 -2.52538,-2.52539 0,-1.39472 1.13065,-2.52538 2.52538,-2.52538 1.39473,0 2.52538,1.13066 2.52538,2.52538 z"
             sodipodi:ry="2.5253813"
             sodipodi:rx="2.5253813"
             sodipodi:cy="282.02386"
             sodipodi:cx="813.93042"
             id="path4009"
             style="fill:#412f72;fill-opacity:1;stroke:none"
             sodipodi:type="arc" />
          <path
             sodipodi:type="arc"
             style="fill:#18b3c2;fill-opacity:1;stroke:none"
             id="path4015"
             sodipodi:cx="813.93042"
             sodipodi:cy="282.02386"
             sodipodi:rx="2.5253813"
             sodipodi:ry="2.5253813"
             d="m 816.4558,282.02386 c 0,1.39473 -1.13065,2.52539 -2.52538,2.52539 -1.39473,0 -2.52538,-1.13066 -2.52538,-2.52539 0,-1.39472 1.13065,-2.52538 2.52538,-2.52538 1.39473,0 2.52538,1.13066 2.52538,2.52538 z"
             transform="translate(138,-2)" />
          <path
             transform="translate(138,16)"
             d="m 816.4558,282.02386 c 0,1.39473 -1.13065,2.52539 -2.52538,2.52539 -1.39473,0 -2.52538,-1.13066 -2.52538,-2.52539 0,-1.39472 1.13065,-2.52538 2.52538,-2.52538 1.39473,0 2.52538,1.13066 2.52538,2.52538 z"
             sodipodi:ry="2.5253813"
             sodipodi:rx="2.5253813"
             sodipodi:cy="282.02386"
             sodipodi:cx="813.93042"
             id="path4017"
             style="fill:#412f72;fill-opacity:1;stroke:none"
             sodipodi:type="arc" />
          <path
             transform="translate(260,-2)"
             d="m 816.4558,282.02386 c 0,1.39473 -1.13065,2.52539 -2.52538,2.52539 -1.39473,0 -2.52538,-1.13066 -2.52538,-2.52539 0,-1.39472 1.13065,-2.52538 2.52538,-2.52538 1.39473,0 2.52538,1.13066 2.52538,2.52538 z"
             sodipodi:ry="2.5253813"
             sodipodi:rx="2.5253813"
             sodipodi:cy="282.02386"
             sodipodi:cx="813.93042"
             id="path4019"
             style="fill:#18b3c2;fill-opacity:1;stroke:none"
             sodipodi:type="arc" />
          <rect
             style="fill:#412f72;fill-opacity:1;stroke:none"
             id="rect4039"
             width="135"
             height="4.9096255"
             x="945.01923"
             y="286.70105"
             rx="2.4548128"
             ry="2.4548128" />
          <path
             sodipodi:type="arc"
             style="fill:#412f72;fill-opacity:1;stroke:none"
             id="path4021"
             sodipodi:cx="813.93042"
             sodipodi:cy="282.02386"
             sodipodi:rx="2.5253813"
             sodipodi:ry="2.5253813"
             d="m 816.4558,282.02386 c 0,1.39473 -1.13065,2.52539 -2.52538,2.52539 -1.39473,0 -2.52538,-1.13066 -2.52538,-2.52539 0,-1.39472 1.13065,-2.52538 2.52538,-2.52538 1.39473,0 2.52538,1.13066 2.52538,2.52538 z"
             transform="translate(260,16)" />
          <path
             transform="translate(278,-2)"
             d="m 816.4558,282.02386 c 0,1.39473 -1.13065,2.52539 -2.52538,2.52539 -1.39473,0 -2.52538,-1.13066 -2.52538,-2.52539 0,-1.39472 1.13065,-2.52538 2.52538,-2.52538 1.39473,0 2.52538,1.13066 2.52538,2.52538 z"
             sodipodi:ry="2.5253813"
             sodipodi:rx="2.5253813"
             sodipodi:cy="282.02386"
             sodipodi:cx="813.93042"
             id="path4023"
             style="fill:#18b3c2;fill-opacity:1;stroke:none"
             sodipodi:type="arc" />
          <path
             sodipodi:nodetypes="cccsssscc"
             inkscape:connector-curvature="0"
             id="path4041"
             d="m 1099.2337,287.06065 106.5711,0 c 8.1145,0 14.6472,2.64724 14.6472,2.64724 l 0,68.89592 c 0,8.11457 -6.5327,14.64724 -14.6472,14.64724 l -106.5711,0 c -8.1145,0 -14.6472,-6.53267 -14.6472,-14.64724 l 0,-68.89592 c 0,0 6.5327,-2.64724 14.6472,-2.64724 z"
             style="fill:#f5f5f5;fill-opacity:1;stroke:none" />
          <path
             sodipodi:type="arc"
             style="fill:#412f72;fill-opacity:1;stroke:none"
             id="path4025"
             sodipodi:cx="813.93042"
             sodipodi:cy="282.02386"
             sodipodi:rx="2.5253813"
             sodipodi:ry="2.5253813"
             d="m 816.4558,282.02386 c 0,1.39473 -1.13065,2.52539 -2.52538,2.52539 -1.39473,0 -2.52538,-1.13066 -2.52538,-2.52539 0,-1.39472 1.13065,-2.52538 2.52538,-2.52538 1.39473,0 2.52538,1.13066 2.52538,2.52538 z"
             transform="translate(278,16)" />
          <path
             sodipodi:type="arc"
             style="fill:#18b3c2;fill-opacity:1;stroke:none"
             id="path4027"
             sodipodi:cx="813.93042"
             sodipodi:cy="282.02386"
             sodipodi:rx="2.5253813"
             sodipodi:ry="2.5253813"
             d="m 816.4558,282.02386 c 0,1.39473 -1.13065,2.52539 -2.52538,2.52539 -1.39473,0 -2.52538,-1.13066 -2.52538,-2.52539 0,-1.39472 1.13065,-2.52538 2.52538,-2.52538 1.39473,0 2.52538,1.13066 2.52538,2.52538 z"
             transform="translate(400,-2)" />
          <g
             style="font-size:177.49546814px;font-style:normal;font-variant:normal;font-weight:500;font-stretch:normal;text-align:start;line-height:125%;letter-spacing:0px;word-spacing:0px;writing-mode:lr-tb;text-anchor:start;fill:#412f72;fill-opacity:1;stroke:none;font-family:Ubuntu;-inkscape-font-specification:Ubuntu Medium"
             id="g4043"
             transform="translate(140,-6)">
            <path
               d="m 1001.337,294.41119 41.0015,-0.23775 8.5736,-0.66721 c 0,0 1.9125,-3.64087 -0.6907,1.5656 -2.485,5.08826 -3.564,5.55684 -8.4154,8.87004 -4.8516,3.19496 -10.7681,5.56157 -17.7495,7.09981 -6.9816,1.53834 -14.9689,2.30749 -23.9619,2.30745 l -11.18225,0 0,43.30889 -22.36443,0 0,-61.2294 c 5.20651,-1.18319 17.21706,-0.30745 17.21706,-0.30745 l 17.57202,-0.70998 m 1.5975,1.34701 -14.02215,0.53248 0,-0.11106 10.82722,0 c 10.76803,0 19.05113,2.52093 24.84933,-0.43739 5.7981,-3.07652 8.6973,-1.21706 8.6973,-1.21706 l -2.3074,-0.11724 -6.3899,3.61016 -9.7622,-3.19492 -11.8922,0.93503"
               style="line-height:125%;fill:#412f72;fill-opacity:1;font-family:Ubuntu;-inkscape-font-specification:Ubuntu Medium"
               id="path4045"
               inkscape:connector-curvature="0"
               sodipodi:nodetypes="cccccsscccccccccscccccc" />
          </g>
          <path
             transform="translate(400,16)"
             d="m 816.4558,282.02386 c 0,1.39473 -1.13065,2.52539 -2.52538,2.52539 -1.39473,0 -2.52538,-1.13066 -2.52538,-2.52539 0,-1.39472 1.13065,-2.52538 2.52538,-2.52538 1.39473,0 2.52538,1.13066 2.52538,2.52538 z"
             sodipodi:ry="2.5253813"
             sodipodi:rx="2.5253813"
             sodipodi:cy="282.02386"
             sodipodi:cx="813.93042"
             id="path4029"
             style="fill:#412f72;fill-opacity:1;stroke:none"
             sodipodi:type="arc" />
          <rect
             ry="2.4548128"
             rx="2.4548128"
             y="286.70105"
             x="1085.0193"
             height="4.9096255"
             width="135"
             id="rect4047"
             style="fill:#412f72;fill-opacity:1;stroke:none" />
        </g>
        <g
           id="g3968"
           transform="translate(4,2)">
          <g
             id="g4034"
             transform="matrix(0.90498615,0,0,0.90498615,72.263969,24.999721)">
            <text
               sodipodi:linespacing="125%"
               id="text4026"
               y="108.58783"
               x="755.43176"
               style="font-size:79.87634277px;font-style:normal;font-variant:normal;font-weight:500;font-stretch:normal;text-align:start;line-height:125%;letter-spacing:0px;word-spacing:0px;writing-mode:lr-tb;text-anchor:start;fill:#ffffff;fill-opacity:1;stroke:none;font-family:Ubuntu;-inkscape-font-specification:Ubuntu Medium"
               xml:space="preserve"><tspan
                 style="font-size:79.87634277px;font-style:normal;font-variant:normal;font-weight:500;font-stretch:normal;text-align:center;line-height:125%;letter-spacing:-4.76530504px;word-spacing:0px;writing-mode:lr-tb;text-anchor:middle;fill:#ffffff;fill-opacity:1;font-family:Ubuntu;-inkscape-font-specification:Ubuntu Medium"
                 y="108.58783"
                 x="753.04913"
                 id="tspan4028"
                 sodipodi:role="line"
                 dx="0">THE FINAL</tspan></text>
            <text
               xml:space="preserve"
               style="font-size:79.87634277px;font-style:normal;font-variant:normal;font-weight:500;font-stretch:normal;text-align:start;line-height:125%;letter-spacing:0px;word-spacing:0px;writing-mode:lr-tb;text-anchor:start;fill:#412f72;fill-opacity:1;stroke:none;font-family:Ubuntu;-inkscape-font-specification:Ubuntu Medium"
               x="757.81439"
               y="106.20518"
               id="text4049"
               sodipodi:linespacing="125%"><tspan
                 dx="0"
                 sodipodi:role="line"
                 id="tspan4051"
                 x="755.43176"
                 y="106.20518"
                 style="font-size:79.87634277px;font-style:normal;font-variant:normal;font-weight:500;font-stretch:normal;text-align:center;line-height:125%;letter-spacing:-4.76530504px;word-spacing:0px;writing-mode:lr-tb;text-anchor:middle;fill:#412f72;fill-opacity:1;font-family:Ubuntu;-inkscape-font-specification:Ubuntu Medium">THE FINAL</tspan></text>
          </g>
          <text
             sodipodi:linespacing="125%"
             id="text4030"
             y="244.87453"
             x="750.09918"
             style="font-size:147.39051819px;font-style:normal;font-variant:normal;font-weight:500;font-stretch:normal;text-align:start;line-height:125%;letter-spacing:0px;word-spacing:0px;writing-mode:lr-tb;text-anchor:start;fill:#ffffff;fill-opacity:1;stroke:none;font-family:Ubuntu;-inkscape-font-specification:Ubuntu Medium"
             xml:space="preserve"><tspan
               style="font-size:147.39051819px;font-style:normal;font-variant:normal;font-weight:500;font-stretch:normal;text-align:center;line-height:125%;letter-spacing:-8.79310226px;word-spacing:0px;writing-mode:lr-tb;text-anchor:middle;fill:#ffffff;fill-opacity:1;font-family:Ubuntu;-inkscape-font-specification:Ubuntu Medium"
               y="244.87453"
               x="745.70264"
               id="tspan4032"
               sodipodi:role="line">COUNT</tspan></text>
          <g
             id="g4040"
             transform="matrix(0.90498615,0,0,0.90498615,81.313853,26.809694)">
            <text
               sodipodi:linespacing="125%"
               id="text4022"
               y="236.74933"
               x="743.00061"
               style="font-size:162.86494446px;font-style:normal;font-variant:normal;font-weight:500;font-stretch:normal;text-align:start;line-height:125%;letter-spacing:0px;word-spacing:0px;writing-mode:lr-tb;text-anchor:start;fill:#412f72;fill-opacity:1;stroke:none;font-family:Ubuntu;-inkscape-font-specification:Ubuntu Medium"
               xml:space="preserve"><tspan
                 style="font-size:162.86494446px;font-style:normal;font-variant:normal;font-weight:500;font-stretch:normal;text-align:center;line-height:125%;letter-spacing:-9.7162838px;word-spacing:0px;writing-mode:lr-tb;text-anchor:middle;fill:#412f72;fill-opacity:1;font-family:Ubuntu;-inkscape-font-specification:Ubuntu Medium"
                 y="236.74933"
                 x="738.14246"
                 id="tspan4024"
                 sodipodi:role="line">COUNT</tspan></text>
          </g>
        </g>
      </g>
    </g>
  </g>
</svg>
